<?xml version="1.0" encoding="utf-8"?>
<!-- Generator: Adobe Illustrator 26.5.0, SVG Export Plug-In . SVG Version: 6.00 Build 0)  -->
<svg version="1.1" id="Layer_1" xmlns="http://www.w3.org/2000/svg" xmlns:xlink="http://www.w3.org/1999/xlink" x="0px" y="0px"
	 viewBox="0 0 512 512" style="enable-background:new 0 0 512 512;" xml:space="preserve">
<style type="text/css">
	.st0{fill:#1E1917;}
	.st1{fill:#FFFFFF;}
	.st2{clip-path:url(#SVGID_00000015336523134978532390000010514015925814002608_);}
	.st3{clip-path:url(#SVGID_00000145759030309293775790000016189842984084657025_);fill:#AE2828;}
</style>
<g id="XMLID_1_">
	<path id="XMLID_21_" class="st0" d="M30.87,261.89H24c-2.8-0.28-0.42,3.93-0.14,5.75c-0.98,1.12-3.37,3.79-5.61,1.82
		c-3.93-3.65-7.15-8.98-9.26-14.72c-0.7-1.82-0.42-4.49,4.49-4.49l17.39,0.14v-5.61H5.63l-5.33-9.96h171.93
		c-1.82-2.1-6.73-12.76-13.18-7.43l-4.77-11.5c5.33-3.65,9.96-3.93,13.46,0.56l12.06,18.37h8.98l5.89,9.68h-9.68v48.1l-10.94-8.13
		v-39.83h-24.26V256c22.3-8.98,21.74,23.42,13.32,34.5L154,282.5l4.91-15.43c1.68-5.33-6.59,2.38-9.12,4.77l-0.14,21.88l-10.8-8.69
		v-5.19c-12.06,5.89-25.38-5.89-23.14-19.21c3.09-13.18,16.13-13.32,23-8.27v-7.71l-26.79-0.14l-0.14,46.28l-11.08-8.69v-21.04
		c-5.19-1.68-7.43,6.87-9.54,11.92l-8.98-6.31l2.24-5.05c-5.61-7.29-12.76,1.96-5.61,13.04c2.52,3.51,5.33,6.59,8.41,9.4l-5.75,6.73
		c-32.39-30.71-7.71-55.11,7.85-37.02c2.94-3.93,6.73-5.05,11.5-1.96v-7.15H59.06v46l-10.94-9.26v-36.6h-6.17v45.16l-11.08-9.26
		L30.87,261.89z M137.87,265.96c-0.98-8.41-10.38-4.63-11.36,1.12c-0.28,2.52,0,4.49,2.66,3.79"/>
	<path id="XMLID_29_" class="st0" d="M372.06,234.82v57.64h-15.99l-9.82-45.02l0.42,45.02h-10.8v-57.78h18.23l7.85,40.95
		l-0.28-40.95h10.38V234.82z M404.32,234.82l7.71,57.64h-13.88l-1.12-15.29l-7.29,0.28l-1.96,15.01h-12.2l10.66-57.78h18.09V234.82z
		 M396.47,268.62c-0.7-6.59-2.24-16.41-2.94-25.94c-1.54,11.08-2.66,21.04-3.09,26.22L396.47,268.62z M429,234.82v49.22h11.78v8.41
		h-25.66v-57.78H429V234.82z M462.8,254.74v-4.77c0-2.94-0.14-6.73-0.42-7.43c-0.28-0.7-0.98-1.12-2.1-1.12
		c-1.26,0-1.96,0.42-2.38,1.26c-0.28,0.84-0.56,4.77-0.56,7.71v26.79c0,2.8,0.14,5.89,0.56,6.87c0.28,0.84,1.12,1.26,2.24,1.26
		c1.12,0,1.82-0.42,2.1-1.26s0.56-4.21,0.56-7.29v-5.89h13.46c0,4.91,0.14,8.83-0.42,13.6c-1.4,12.62-28.89,13.6-30.71,0.42
		c-0.42-2.94-1.4-7.01-1.4-12.76V255.3c0-4.21,0.56-7.29,0.42-9.4c-0.7-16.27,28.61-17.39,31.55-3.23
		c0.56,2.66,0.56,11.92,0.7,11.92L462.8,254.74z M512.3,280.96c0,17.81-32.67,17.67-32.67,0.14v-34.64
		c0-18.37,32.67-18.37,32.67-0.14V280.96z M498.7,247.17c0-2.66-0.14-4.35-0.42-5.19c-0.28-0.7-0.84-1.12-1.82-1.12
		c-0.84,0-1.4,0.28-1.82,0.98c-0.42,0.56-0.56,2.38-0.56,5.33v31.13c0,3.37,0.14,5.47,0.42,6.17c0.28,0.84,0.84,1.12,1.82,1.12
		c0.98,0,1.68-0.42,1.96-1.4c0.28-0.84,0.42-3.09,0.42-6.45"/>
	<path id="XMLID_30_" class="st1" d="M262.26,205.8c27.77,0,50.2,22.44,50.2,50.2s-22.44,50.2-50.2,50.2s-50.2-22.44-50.2-50.2
		C212.06,228.23,234.49,205.8,262.26,205.8"/>
	<g id="XMLID_33_">
		<g>
			<defs>
				<path id="SVGID_1_" d="M262.26,205.8c27.77,0,50.2,22.44,50.2,50.2s-22.44,50.2-50.2,50.2s-50.2-22.44-50.2-50.2
					C212.06,228.23,234.49,205.8,262.26,205.8"/>
			</defs>
			<clipPath id="SVGID_00000101100680391357253230000013161673976988322465_">
				<use xlink:href="#SVGID_1_"  style="overflow:visible;"/>
			</clipPath>
			<g id="XMLID_36_" style="clip-path:url(#SVGID_00000101100680391357253230000013161673976988322465_);">
				<g>
					<defs>
						
							<rect id="SVGID_00000053531129694141037260000015739694586213071014_" x="-491.37" y="-1285.61" width="1494.49" height="1855.18"/>
					</defs>
					<clipPath id="SVGID_00000059995142853845118190000009593140665132559022_">
						<use xlink:href="#SVGID_00000053531129694141037260000015739694586213071014_"  style="overflow:visible;"/>
					</clipPath>
					<path id="XMLID_41_" style="clip-path:url(#SVGID_00000059995142853845118190000009593140665132559022_);fill:#AE2828;" d="
						M262.26,205.23c27.63,0,50.2,22.86,50.2,50.77c0,7.99-1.82,15.71-5.19,22.44c-3.65-0.42-5.05-1.4-6.03-5.47l-9.82-33.52
						c-3.93-13.32-9.68-27.49-28.61-28.33c-20.19-0.28-26.5,17.25-29.87,28.47l-9.68,32.96c-1.26,5.19-2.94,5.61-6.03,6.03
						c-3.37-6.87-5.33-14.44-5.33-22.58C212.06,228.09,234.63,205.23,262.26,205.23z M262.12,257.4c6.31,0,11.5,5.19,11.5,11.64
						s-5.19,11.64-11.5,11.64c-6.31,0-11.5-5.19-11.5-11.64C250.62,262.59,255.81,257.4,262.12,257.4z M294.51,294.85
						c-8.69,7.43-20.05,11.92-32.25,11.92c-12.34,0-23.56-4.49-32.25-11.92c4.63-1.82,9.4-7.43,11.08-13.32l11.5-39.13
						c1.4-3.51,2.38-11.5,10.1-11.5c7.01,0,7.99,7.99,9.26,11.36L284,282.5C285.96,288.67,289.33,291.76,294.51,294.85z
						 M222.15,286.43c2.8-1.26,4.77-2.52,6.03-3.93c1.26-1.26,1.96-2.94,2.66-5.05l0,0l11.5-39.55l0,0
						c1.54-4.63,3.51-9.12,6.59-12.48c3.23-3.37,7.57-5.61,14.16-5.61l0,0c6.17,0,10.38,3.09,13.18,6.73
						c2.8,3.65,4.35,7.85,5.33,10.66l0,0l12.06,39.69c0.7,2.38,1.4,4.21,2.8,5.75c1.4,1.54,3.51,2.8,6.03,3.51l-1.54,1.82
						c-2.94-0.98-4.63-2.1-6.31-3.93c-1.68-1.82-2.38-4.07-3.23-6.87l-11.92-39.55l0,0c-0.84-2.66-2.38-6.73-4.91-9.96
						c-2.52-3.23-6.03-5.89-11.36-5.89l0,0c-5.89,0-9.68,1.96-12.48,4.91c-2.8,3.09-4.63,7.15-6.03,11.5l-11.5,39.55l0,0
						c-0.7,2.52-1.68,4.35-3.23,6.03c-1.54,1.54-3.37,2.8-6.31,4.21"/>
				</g>
			</g>
		</g>
	</g>
</g>
</svg>
